<?xml version="1.0" encoding="UTF-8"?>
<svg width="256px" height="264px" viewBox="0 0 256 264" version="1.1" xmlns="http://www.w3.org/2000/svg" xmlns:xlink="http://www.w3.org/1999/xlink">
    <title>Weblog</title>
    <g id="Page-1" stroke="none" stroke-width="1" fill="none" fill-rule="evenodd">
        <path d="M231.463347,241.228265 C231.463347,254.42558 225.226146,261.559264 217.148009,261.641576 L47.6445208,263.28781 C33.906193,263.424997 26.8721692,259.364284 26.8721692,243.258621 C26.8721692,232.530658 26.1577761,162.949803 25.6631963,117.568598 L0,117.568598 L0,78.6625836 L12.7216915,78.6625836 L15.2495438,88.8966763 L25.3334764,88.8966763 C25.3334764,82.0648021 25.3334764,77.921778 25.3334764,77.921778 L48.6336804,77.7297172 L48.6336804,0.548744915 L165.189653,0 L209.591929,43.8995932 L210.168938,76.8242881 L231.545777,76.6596647 L231.545777,90.9544697 L242.536439,90.9544697 L242.811205,77.5376565 L255.532897,77.0437861 L256,116.388797 L231.655683,116.525983 L231.463347,241.228265 Z M174.249315,243.848101 C191.431213,243.848101 191.540132,217.113924 173.949789,217.113924 C156.359446,217.113924 155.32472,243.848101 174.249315,243.848101 Z M150.769844,213.063291 C167.932807,213.063291 168.041778,186.329114 150.470173,186.329114 C132.898568,186.329114 131.836098,213.063291 150.63363,213.063291 L150.769844,213.063291 Z M131.326806,243.848101 C148.489769,243.848101 148.59874,217.113924 131.027135,217.113924 C113.45553,217.113924 112.39306,243.848101 131.190592,243.848101 L131.326806,243.848101 Z M107.827409,213.063291 C124.998012,213.063291 125.106859,186.329114 107.52808,186.329114 C89.9493019,186.329114 88.9152561,213.063291 107.691351,213.063291 L107.827409,213.063291 Z M87.5465663,243.848101 C104.754056,243.848101 104.86331,217.113924 87.2461181,217.113924 C69.6289262,217.113924 68.7002681,243.848101 87.5465663,243.848101 Z M64.8779768,213.063291 C82.0655322,213.063291 82.1746596,186.329114 64.5778766,186.329114 C46.9810937,186.329114 45.9716659,213.063291 64.8779768,213.063291 L64.8779768,213.063291 Z M194.691553,55.2710219 L154.563092,56.2583879 L157.143171,15.3924051 L64.0956458,15.3924051 L63.1898734,100.964128 L195.240506,101.265823 L194.691553,55.2710219 Z M195.020902,116.658228 L62.5993514,117.396025 L62.3797468,136.524087 L74.5128988,136.305481 C87.6617219,180.737237 170.891851,180.545956 182.805398,134.338023 L195.240506,134.119416 L195.020902,116.658228 Z M193.392829,186.329114 C175.720666,186.329114 174.847967,213.063291 193.692819,213.063291 C210.874089,213.063291 210.983176,186.329114 193.392829,186.329114 Z M153.460912,142.319491 L159.979093,153.282398 L152.420194,158.763852 L137.987078,146.814283 L135.056635,162.025316 L124.567293,162.025316 L121.527301,145.909843 L109.39472,159.394219 L100.274744,155.1735 L107.395446,143.360967 L90.360536,144.347629 L84.2531646,136.125449 L174.987342,134.481013 L169.838526,144.100964 L153.460912,142.319491 Z" id="Shape" fill="#1F2328" fill-rule="nonzero"></path>
    </g>
</svg>
